<svg width="357" height="238" viewBox="0 0 357 238" fill="none" xmlns="http://www.w3.org/2000/svg">
<path fill-rule="evenodd" clip-rule="evenodd" d="M138.25 50.375C138.25 61.2826 129.408 70.125 118.5 70.125C107.592 70.125 98.75 61.2826 98.75 50.375C98.75 39.4674 107.592 30.625 118.5 30.625C129.408 30.625 138.25 39.4674 138.25 50.375ZM148.125 80L158 139.25H143.188V208.375H123.438V149.125H113.563V208.375H93.8126V149.125L93.8125 122.321L83.9375 139.25H79L49.375 208.375H39.5L69.125 139.25H59.25L93.8125 80H113.562H118.5H148.125Z" fill="white"/>
<path fill-rule="evenodd" clip-rule="evenodd" d="M203.292 69.4167C214.245 69.4167 223.125 60.537 223.125 49.5833C223.125 38.6297 214.245 29.75 203.292 29.75C192.338 29.75 183.458 38.6297 183.458 49.5833C183.458 60.537 192.338 69.4167 203.292 69.4167ZM228.083 138.833L228.083 208.25H208.25V148.75H198.333V208.25H178.5V148.75V138.833H163.625L173.542 79.3333H223.125H228.083H247.917H252.875H272.708H277.667H297.5L332.208 138.833H322.292L352.042 208.25H342.125L312.375 138.833H307.417L297.5 121.833L297.5 148.75V208.25H277.667V148.75H267.75V208.25H247.917L247.917 138.833V99.1667H228.083V138.833ZM272.708 69.4167C261.755 69.4167 252.875 60.537 252.875 49.5833C252.875 38.6297 261.755 29.75 272.708 29.75C283.662 29.75 292.542 38.6297 292.542 49.5833C292.542 60.537 283.662 69.4167 272.708 69.4167Z" fill="white"/>
</svg>
