<svg width="50" height="50" viewBox="0 0 50 50" fill="none" xmlns="http://www.w3.org/2000/svg">
<path d="M25 16.9291C20.5558 16.9291 16.9291 20.5559 16.9291 25C16.9291 29.4441 20.5558 33.0709 25 33.0709C29.4441 33.0709 33.0709 29.4441 33.0709 25C33.0709 20.5559 29.4441 16.9291 25 16.9291ZM49.2066 25C49.2066 21.6578 49.2369 18.3459 49.0492 15.0098C48.8615 11.1348 47.9775 7.6957 45.1439 4.8621C42.3043 2.02245 38.8713 1.14453 34.9963 0.95683C31.6541 0.769135 28.3422 0.799408 25.006 0.799408C21.6638 0.799408 18.3519 0.769135 15.0158 0.95683C11.1408 1.14453 7.70174 2.02851 4.86815 4.8621C2.0285 7.70175 1.15057 11.1348 0.962873 15.0098C0.775177 18.3519 0.805451 21.6639 0.805451 25C0.805451 28.3361 0.775177 31.6541 0.962873 34.9902C1.15057 38.8652 2.03455 42.3043 4.86815 45.1379C7.70779 47.9775 11.1408 48.8555 15.0158 49.0432C18.358 49.2309 21.6699 49.2006 25.006 49.2006C28.3482 49.2006 31.6601 49.2309 34.9963 49.0432C38.8713 48.8555 42.3103 47.9715 45.1439 45.1379C47.9836 42.2982 48.8615 38.8652 49.0492 34.9902C49.2429 31.6541 49.2066 28.3422 49.2066 25ZM25 37.4182C18.1279 37.4182 12.5818 31.8721 12.5818 25C12.5818 18.1279 18.1279 12.5818 25 12.5818C31.872 12.5818 37.4181 18.1279 37.4181 25C37.4181 31.8721 31.872 37.4182 25 37.4182ZM37.9267 14.9734C36.3222 14.9734 35.0265 13.6777 35.0265 12.0732C35.0265 10.4687 36.3222 9.17304 37.9267 9.17304C39.5312 9.17304 40.8269 10.4687 40.8269 12.0732C40.8274 12.4542 40.7527 12.8316 40.6071 13.1837C40.4616 13.5357 40.2479 13.8556 39.9785 14.1251C39.7091 14.3945 39.3892 14.6081 39.0372 14.7536C38.6851 14.8992 38.3077 14.9739 37.9267 14.9734Z" fill="white"/>
</svg>
